<svg width="61" height="58" viewBox="0 0 61 58" fill="none" xmlns="http://www.w3.org/2000/svg">
<g filter="url(#filter0_d_1_93)">
<path d="M22.175 28.665L17 39V48C17 48.7956 17.3161 49.5587 17.8787 50.1213C18.4413 50.6839 19.2044 51 20 51H44C44.7956 51 45.5587 50.6839 46.1213 50.1213C46.6839 49.5587 47 48.7956 47 48V39L41.825 28.665C41.5766 28.1652 41.1938 27.7446 40.7194 27.4504C40.2451 27.1563 39.6981 27.0003 39.14 27H24.86C24.3019 27.0003 23.7549 27.1563 23.2806 27.4504C22.8062 27.7446 22.4234 28.1652 22.175 28.665Z" fill="url(#paint0_linear_1_93)" stroke="#2D1E0A" stroke-width="2" stroke-linecap="round" stroke-linejoin="round"/>
<path d="M47 39H38L35 43.5H29L26 39H17" stroke="#2D1E0A" stroke-width="2" stroke-linecap="round" stroke-linejoin="round"/>
</g>
<g filter="url(#filter1_d_1_93)">
<path d="M27.9949 25.9855L27.1105 33.8698C27.0495 34.4141 27.4412 34.9048 27.9855 34.9658L33.8987 35.6291C34.443 35.6902 34.9337 35.2984 34.9948 34.7542L35.8792 26.8699C35.9402 26.3256 35.5485 25.8349 35.0042 25.7738L29.091 25.1105C28.5467 25.0495 28.056 25.4412 27.9949 25.9855Z" fill="#E0FFB8" stroke="#5DA600" stroke-width="0.99171" stroke-linecap="round" stroke-linejoin="round"/>
<path d="M29.5838 25.1658L31.9089 29.9128C31.9793 30.073 32.0062 30.2489 31.9867 30.4228C31.9672 30.5966 31.902 30.7622 31.7978 30.9028L28.4783 35.0211" stroke="#5DA600" stroke-width="0.99171" stroke-linecap="round" stroke-linejoin="round"/>
</g>
<g filter="url(#filter2_d_1_93)">
<path d="M36.544 12.4073L29.5291 21.3719C29.0448 21.9908 29.1539 22.885 29.7728 23.3693L36.4963 28.6305C37.1151 29.1148 38.0094 29.0057 38.4937 28.3868L45.5086 19.4222C45.9929 18.8033 45.8838 17.9091 45.2649 17.4248L38.5415 12.1636C37.9226 11.6793 37.0283 11.7884 36.544 12.4073Z" fill="#E0FFB8" stroke="#5DA600" stroke-width="1.42288" stroke-linecap="round" stroke-linejoin="round"/>
<path d="M39.1017 12.602L38.3686 20.1505C38.3341 20.3991 38.2344 20.6342 38.0797 20.8319C37.9251 21.0296 37.7208 21.1828 37.4878 21.2761L30.3331 23.8078" stroke="#5DA600" stroke-width="1.42288" stroke-linecap="round" stroke-linejoin="round"/>
</g>
<g filter="url(#filter3_d_1_93)">
<path d="M54.3101 3.33864L39.8122 6.04772C38.8114 6.23475 38.1516 7.19772 38.3386 8.19859L40.3705 19.072C40.5575 20.0728 41.5205 20.7326 42.5213 20.5456L57.0192 17.8365C58.02 17.6495 58.6798 16.6865 58.4928 15.6856L56.461 4.81223C56.2739 3.81136 55.311 3.15161 54.3101 3.33864Z" fill="#E0FFB8" stroke="#5DA600" stroke-width="1.8436" stroke-linecap="round" stroke-linejoin="round"/>
<path d="M56.6303 5.71835L49.4531 12.43C49.2066 12.6422 48.9084 12.7855 48.5887 12.8452C48.269 12.905 47.9391 12.8791 47.6327 12.7702L38.508 9.10471" stroke="#5DA600" stroke-width="1.8436" stroke-linecap="round" stroke-linejoin="round"/>
</g>
<defs>
<filter id="filter0_d_1_93" x="11.7931" y="21" width="40.4138" height="40.4138" filterUnits="userSpaceOnUse" color-interpolation-filters="sRGB">
<feFlood flood-opacity="0" result="BackgroundImageFix"/>
<feColorMatrix in="SourceAlpha" type="matrix" values="0 0 0 0 0 0 0 0 0 0 0 0 0 0 0 0 0 0 127 0" result="hardAlpha"/>
<feOffset dy="2.2069"/>
<feGaussianBlur stdDeviation="1.10345"/>
<feComposite in2="hardAlpha" operator="out"/>
<feColorMatrix type="matrix" values="0 0 0 0 0 0 0 0 0 0 0 0 0 0 0 0 0 0 0.25 0"/>
<feBlend mode="normal" in2="BackgroundImageFix" result="effect1_dropShadow_1_93"/>
<feBlend mode="normal" in="SourceGraphic" in2="effect1_dropShadow_1_93" result="shape"/>
</filter>
<filter id="filter1_d_1_93" x="25.6084" y="24.6084" width="11.773" height="13.5229" filterUnits="userSpaceOnUse" color-interpolation-filters="sRGB">
<feFlood flood-opacity="0" result="BackgroundImageFix"/>
<feColorMatrix in="SourceAlpha" type="matrix" values="0 0 0 0 0 0 0 0 0 0 0 0 0 0 0 0 0 0 127 0" result="hardAlpha"/>
<feOffset dy="1"/>
<feGaussianBlur stdDeviation="0.5"/>
<feComposite in2="hardAlpha" operator="out"/>
<feColorMatrix type="matrix" values="0 0 0 0 0 0 0 0 0 0 0 0 0 0 0 0 0 0 0.25 0"/>
<feBlend mode="normal" in2="BackgroundImageFix" result="effect1_dropShadow_1_93"/>
<feBlend mode="normal" in="SourceGraphic" in2="effect1_dropShadow_1_93" result="shape"/>
</filter>
<filter id="filter2_d_1_93" x="26.8078" y="10.296" width="21.4221" height="21.9095" filterUnits="userSpaceOnUse" color-interpolation-filters="sRGB">
<feFlood flood-opacity="0" result="BackgroundImageFix"/>
<feColorMatrix in="SourceAlpha" type="matrix" values="0 0 0 0 0 0 0 0 0 0 0 0 0 0 0 0 0 0 127 0" result="hardAlpha"/>
<feOffset dy="0.853726"/>
<feGaussianBlur stdDeviation="0.853726"/>
<feComposite in2="hardAlpha" operator="out"/>
<feColorMatrix type="matrix" values="0 0 0 0 0 0 0 0 0 0 0 0 0 0 0 0 0 0 0.25 0"/>
<feBlend mode="normal" in2="BackgroundImageFix" result="effect1_dropShadow_1_93"/>
<feBlend mode="normal" in="SourceGraphic" in2="effect1_dropShadow_1_93" result="shape"/>
</filter>
<filter id="filter3_d_1_93" x="35.6328" y="1.50889" width="25.5658" height="22.6186" filterUnits="userSpaceOnUse" color-interpolation-filters="sRGB">
<feFlood flood-opacity="0" result="BackgroundImageFix"/>
<feColorMatrix in="SourceAlpha" type="matrix" values="0 0 0 0 0 0 0 0 0 0 0 0 0 0 0 0 0 0 127 0" result="hardAlpha"/>
<feOffset dy="0.876081"/>
<feGaussianBlur stdDeviation="0.876081"/>
<feComposite in2="hardAlpha" operator="out"/>
<feColorMatrix type="matrix" values="0 0 0 0 0 0 0 0 0 0 0 0 0 0 0 0 0 0 0.25 0"/>
<feBlend mode="normal" in2="BackgroundImageFix" result="effect1_dropShadow_1_93"/>
<feBlend mode="normal" in="SourceGraphic" in2="effect1_dropShadow_1_93" result="shape"/>
</filter>
<linearGradient id="paint0_linear_1_93" x1="32" y1="45" x2="32" y2="39" gradientUnits="userSpaceOnUse">
<stop stop-color="#B08F65"/>
<stop offset="1" stop-color="#9D7A4C"/>
</linearGradient>
</defs>
</svg>
